<svg width="48" height="48" viewBox="0 0 48 48" fill="none" xmlns="http://www.w3.org/2000/svg">
<g clip-path="url(#clip0_1060_323)">
<path d="M40.0312 0H7.96875C3.56773 0 0 3.65336 0 8.16V39.7632C0 44.2698 3.56773 47.9232 7.96875 47.9232H40.0312C44.4323 47.9232 48 44.2698 48 39.7632V8.16C48 3.65336 44.4323 0 40.0312 0Z" fill="#470137"/>
<path d="M25.2334 12.6031L19.2441 22.7259L25.6519 33.475C25.6931 33.5503 25.7046 33.6386 25.6841 33.7223C25.6742 33.758 25.6528 33.7668 25.62 33.7682L25.5836 33.7676L25.5394 33.7665C25.5154 33.7665 25.4886 33.7676 25.4587 33.7726H20.8387L20.748 33.7711C20.499 33.7643 20.3196 33.7279 20.2102 33.5409C19.7828 32.6881 19.3534 31.8363 18.9221 30.9855C18.5363 30.2267 18.1401 29.4735 17.7334 28.7263L17.5537 28.3972C17.0673 27.5119 16.5897 26.6216 16.1209 25.7265H16.0886C15.6557 26.6123 15.2102 27.4916 14.7523 28.3642C14.2905 29.2435 13.8343 30.1175 13.3837 30.9855C12.9329 31.8543 12.4714 32.7171 11.9992 33.5739C11.9233 33.7486 11.7971 33.7851 11.6214 33.791L11.5483 33.7922H7.13699L7.11787 33.7928L7.05487 33.7985C7.01981 33.8006 6.99881 33.7929 6.99206 33.7388C6.97996 33.6584 6.99717 33.5763 7.04043 33.508L13.2549 23.0555L7.20131 12.5704C7.13699 12.4829 7.12631 12.4114 7.16906 12.3561C7.19282 12.328 7.22265 12.3059 7.25621 12.2915C7.28976 12.2772 7.3261 12.2711 7.36237 12.2736H11.9025C12.0015 12.268 12.1005 12.285 12.1924 12.3231C12.2692 12.3679 12.3354 12.4299 12.3855 12.5046C12.7719 13.3839 13.2013 14.2633 13.6736 15.1423C14.1423 16.0157 14.6199 16.884 15.1065 17.7471C15.5856 18.5969 16.0314 19.4658 16.4428 20.352H16.4751C16.8967 19.466 17.3314 18.5867 17.7791 17.7143C18.2188 16.857 18.6697 15.994 19.1314 15.1257C19.5871 14.2687 20.0326 13.4059 20.4677 12.5376C20.4924 12.4562 20.5367 12.3825 20.5965 12.3231C20.676 12.2819 20.7654 12.2647 20.8541 12.2736H25.0723C25.1111 12.2637 25.152 12.267 25.1888 12.2829C25.2256 12.2988 25.2563 12.3266 25.2764 12.3619C25.2965 12.3973 25.3048 12.4384 25.3002 12.4791C25.2955 12.5197 25.278 12.5577 25.2504 12.5873L25.2334 12.6031ZM34.6965 34.1979L34.4745 34.2004C32.9924 34.2235 31.5239 33.9081 30.1757 33.2772C28.9198 32.682 27.8699 31.7104 27.165 30.4909C26.4542 29.2821 26.0893 27.7757 26.0709 25.9722L26.0702 25.8253C26.0581 24.312 26.4358 22.8222 27.1652 21.5059C27.8951 20.2031 28.9593 19.1298 30.2424 18.402L30.3529 18.3406C31.7479 17.5492 33.4331 17.1535 35.4082 17.1535L35.4945 17.1544L35.5931 17.1577L35.7037 17.1627L35.8267 17.17L36.0334 17.1849L36.2674 17.2041L36.4386 17.2195V10.7238C36.4386 10.5702 36.5031 10.493 36.6317 10.493H40.689C40.7152 10.4891 40.742 10.4916 40.7671 10.5002C40.7923 10.5087 40.8151 10.5232 40.8339 10.5424C40.8526 10.5616 40.8667 10.585 40.8751 10.6107C40.8835 10.6365 40.8859 10.6639 40.8821 10.6907V30.1778C40.8821 30.505 40.8945 30.8575 40.9192 31.2345L40.9792 32.0899L41.0111 32.5847C41.0151 32.6532 40.9987 32.7214 40.9643 32.7802C40.9298 32.8391 40.8787 32.8859 40.8178 32.9145C39.7711 33.3615 38.6809 33.693 37.5656 33.9035C36.6188 34.0825 35.6592 34.1809 34.6965 34.1979ZM36.4386 30.1117V21.1102C36.2645 21.0619 36.0868 21.0289 35.9074 21.0113C35.688 20.9887 35.4677 20.9777 35.2472 20.9783C34.4658 20.9704 33.6936 21.1511 32.9932 21.5059C32.311 21.8532 31.7285 22.3758 31.3027 23.0227C30.8777 23.6594 30.6577 24.4907 30.6433 25.5168L30.6426 25.6276C30.6269 26.3463 30.7415 27.0617 30.9806 27.7377C31.1753 28.2824 31.483 28.7774 31.8825 29.1886C32.2648 29.5669 32.7278 29.849 33.2347 30.0129C33.7703 30.1904 34.3301 30.2796 34.893 30.2769C35.1934 30.2769 35.4724 30.2657 35.7302 30.2436C35.9358 30.2278 36.1396 30.1931 36.3392 30.14L36.4386 30.1117Z" fill="#FF61F6"/>
</g>
<defs>
<clipPath id="clip0_1060_323">
<rect width="48" height="48" fill="white"/>
</clipPath>
</defs>
</svg>
