<svg width="48" height="48" viewBox="0 0 48 48" fill="none" xmlns="http://www.w3.org/2000/svg">
<path d="M43.275 11.5125L25.1625 1.08745C24.8625 0.899951 24.45 0.824951 24 0.824951C23.55 0.824951 23.1375 0.937451 22.8375 1.08745L4.8375 11.55C4.2 11.925 3.75 12.8625 3.75 13.575V34.4625C3.75 34.875 3.825 35.3625 4.125 35.775L44.175 12.525C43.95 12.075 43.6125 11.7375 43.275 11.5125Z" fill="#9B4F96"/>
<path d="M4.01251 35.7376C4.20001 36.0376 4.46251 36.3 4.72501 36.45L22.8 46.9125C23.1 47.1 23.5125 47.175 23.9625 47.175C24.4125 47.175 24.825 47.0625 25.125 46.9125L43.125 36.45C43.7625 36.075 44.2125 35.1376 44.2125 34.4251V13.5375C44.2125 13.2 44.175 12.825 43.9875 12.4875L4.01251 35.7376Z" fill="#68217A"/>
<path d="M31.9875 28.5375C30.4125 31.3125 27.4125 33.1875 24 33.1875C18.9375 33.1875 14.8125 29.0625 14.8125 24C14.8125 18.9375 18.9375 14.8125 24 14.8125C27.4125 14.8125 30.4125 16.6875 31.9875 19.5L36.8625 16.6875C34.3125 12.225 29.5125 9.1875 24 9.1875C15.825 9.1875 9.1875 15.825 9.1875 24C9.1875 32.175 15.825 38.8125 24 38.8125C29.475 38.8125 34.275 35.8125 36.825 31.3875L31.9875 28.5375ZM36.375 24.825L36.7125 23.2125H35.1375V21.45H37.05L37.5 19.125H39.3375L38.8875 21.4125H40.3125L40.7625 19.125H42.5625L42.1125 21.4125H43.0125V23.175H41.775L41.4375 24.7875H43.0125V26.55H41.1L40.65 28.8H38.8125L39.2625 26.55H37.8375L37.3875 28.8H35.5875L36.0375 26.55H35.1375V24.7875H36.375V24.825ZM38.175 24.825H39.6L39.9375 23.2125H38.5125L38.175 24.825Z" fill="white"/>
</svg>
