<svg width="48" height="48" viewBox="0 0 48 48" fill="none" xmlns="http://www.w3.org/2000/svg">
<g clip-path="url(#clip0_1060_316)">
<path d="M24 0L10.4728 1.57821L0 17.0911L24 47.9301L48 17.0911L37.5274 1.57821L24 0Z" fill="#FDB300"/>
<path d="M0 17.0913L24 47.9301L9.72112 17.0913H0ZM38.2787 17.0913L24 47.9301L47.9998 17.0913H38.2787Z" fill="#EB6C00"/>
<path d="M9.72113 17.0913L24 47.9301L38.2789 17.0913H9.72113Z" fill="#FDAD00"/>
<path d="M10.4728 1.57821L9.72113 17.0911L24 0L10.4728 1.57821ZM38.2787 17.0913L37.5272 1.57821L24 0.000206897L38.2787 17.0913Z" fill="#FDD231"/>
<path d="M38.2789 17.0912H47.9998L37.5272 1.57812L38.2789 17.0912ZM0 17.0912H9.72112L10.4728 1.57812L0 17.0912Z" fill="#FDAD00"/>
<path d="M24 0L9.72113 17.0911H38.2789L24 0Z" fill="#FEEEB7"/>
</g>
<defs>
<clipPath id="clip0_1060_316">
<rect width="48" height="48" fill="white"/>
</clipPath>
</defs>
</svg>
