<svg width="100" height="112" viewBox="0 0 100 112" fill="none" xmlns="http://www.w3.org/2000/svg">
<rect y="6" width="100" height="100" rx="50" fill="#266E73"/>
<path d="M64.5723 48.9062H62.6582C62.3392 47.7669 62.0202 46.7643 61.7012 45.8984C61.4277 45.0326 61.0859 44.2578 60.6758 43.5742C60.3112 42.8451 59.901 42.207 59.4453 41.6602C58.9896 41.0677 58.4655 40.4525 57.873 39.8145C55.1387 36.9434 51.9486 35.5078 48.3027 35.5078C45.8874 35.5078 43.9277 36.1458 42.4238 37.4219C40.9655 38.6979 40.2363 40.4297 40.2363 42.6172C40.2363 44.7591 41.125 46.7643 42.9023 48.6328C44.6797 50.5013 47.5964 52.5521 51.6523 54.7852C56.8477 57.6107 60.5846 60.3678 62.8633 63.0566C65.1875 65.7454 66.3496 68.6849 66.3496 71.875C66.3496 73.8802 65.9395 75.7487 65.1191 77.4805C64.2988 79.2122 63.1823 80.7161 61.7695 81.9922C60.3568 83.2682 58.6706 84.2708 56.7109 85C54.7513 85.7292 52.6549 86.0938 50.4219 86.0938C48.8268 86.0938 47.2546 85.957 45.7051 85.6836C44.1556 85.4102 42.6517 84.9544 41.1934 84.3164C40.4186 84.043 39.7122 83.8379 39.0742 83.7012C38.4362 83.5189 37.9121 83.4277 37.502 83.4277C36.9095 83.4277 36.4082 83.6784 35.998 84.1797C35.5879 84.681 35.36 85.2962 35.3145 86.0254H33.6055L31.2812 69.4824H33.0586C35.0182 74.2676 37.2513 77.7767 39.7578 80.0098C42.2643 82.1973 45.2949 83.291 48.8496 83.291C51.7207 83.291 54.0221 82.4935 55.7539 80.8984C57.5312 79.3034 58.4199 77.207 58.4199 74.6094C58.4199 73.6068 58.306 72.7181 58.0781 71.9434C57.8958 71.1686 57.6224 70.5078 57.2578 69.9609C56.3464 68.5026 54.888 66.9987 52.8828 65.4492C50.9232 63.8997 48.5534 62.3503 45.7734 60.8008C43.5859 59.6615 41.7174 58.5221 40.168 57.3828C38.6185 56.2435 37.3424 55.0586 36.3398 53.8281C35.3828 52.5977 34.6764 51.3216 34.2207 50C33.765 48.6784 33.5371 47.2428 33.5371 45.6934C33.5371 41.3639 35.041 37.9915 38.0488 35.5762C39.3249 34.528 40.7376 33.7305 42.2871 33.1836C43.8366 32.5911 45.3633 32.2949 46.8672 32.2949C48.2344 32.2949 49.6016 32.4544 50.9688 32.7734C52.3815 33.0469 53.8171 33.457 55.2754 34.0039C56.0046 34.3229 56.6654 34.5508 57.2578 34.6875C57.8503 34.8242 58.3516 34.8926 58.7617 34.8926C60.0378 34.8926 60.8581 34.0267 61.2227 32.2949H62.8633L64.5723 48.9062Z" fill="white"/>
</svg>
